/* XPM */
static char *lmms[] = {
/* columns rows colors chars-per-pixel */
"32 32 188 2 ",
"   c #050405",
".  c #090909",
"X  c #131413",
"o  c #1E1E1E",
"O  c #1B241B",
"+  c #362C00",
"@  c #242323",
"#  c #272E27",
"$  c #2B2A2B",
"%  c #333433",
"&  c #373A37",
"*  c #383638",
"=  c #3C3D3C",
"-  c #185118",
";  c #047A04",
":  c #257A25",
">  c #377D37",
",  c #5A4A00",
"<  c #635100",
"1  c #685500",
"2  c #745F00",
"3  c #756203",
"4  c #7E6600",
"5  c #403F40",
"6  c #395144",
"7  c #434243",
"8  c #424A42",
"9  c #4C4B4C",
"0  c #4A554A",
"q  c #535353",
"w  c #505850",
"e  c #5B5B5B",
"r  c #636363",
"t  c #6D6D6D",
"y  c #746F73",
"u  c #727272",
"i  c #7D7D7D",
"p  c #8E7400",
"a  c #917600",
"s  c #967A00",
"d  c #9A7E00",
"f  c #039903",
"g  c #0B9E0B",
"h  c #158615",
"j  c #1A931A",
"k  c #00A300",
"l  c #00AB00",
"z  c #0FA70F",
"x  c #00B500",
"c  c #00BC00",
"v  c #08B108",
"b  c #08BC08",
"n  c #17A617",
"m  c #19A919",
"M  c #14BF14",
"N  c #18B718",
"B  c #1BBD1B",
"V  c #228C22",
"C  c #249424",
"Z  c #259925",
"A  c #289B28",
"S  c #308030",
"D  c #2CA22C",
"F  c #24B224",
"G  c #26BB26",
"H  c #30A630",
"J  c #3DA83D",
"K  c #32B232",
"L  c #3DB33D",
"P  c #3ABD3A",
"I  c #02C302",
"U  c #02CB02",
"Y  c #01D201",
"T  c #03DC03",
"R  c #13C713",
"E  c #16D816",
"W  c #00E400",
"Q  c #00E900",
"!  c #24CF24",
"~  c #29C229",
"^  c #2CC82C",
"/  c #33C133",
"(  c #37CD37",
")  c #3CC13C",
"_  c #32D032",
"`  c #2DEA2D",
"'  c #3EE53E",
"]  c #499449",
"[  c #43A743",
"{  c #46AC46",
"}  c #54B654",
"|  c #5EBF5E",
" . c #4EC54E",
".. c #4ACB4A",
"X. c #44D244",
"o. c #54C954",
"O. c #5CCC5C",
"+. c #50D450",
"@. c #56DA56",
"#. c #5DD15D",
"$. c #44E144",
"%. c #62C462",
"&. c #66CC66",
"*. c #6EC06E",
"=. c #68CC68",
"-. c #64D164",
";. c #69DE69",
":. c #74C674",
">. c #70CB70",
",. c #74D274",
"<. c #75DA75",
"1. c #7DD27D",
"2. c #62E562",
"3. c #9D8000",
"4. c #AB8B00",
"5. c #B08F00",
"6. c #B29101",
"7. c #B99600",
"8. c #BD9A00",
"9. c #C29E00",
"0. c #C4A100",
"q. c #CAA500",
"w. c #CCA800",
"e. c #D4AD00",
"r. c #0055C5",
"t. c #0058CE",
"y. c #0058D0",
"u. c #0067CE",
"i. c #0068CF",
"p. c #0075CF",
"a. c #006AD3",
"s. c #0077D1",
"d. c #0079D5",
"f. c #868686",
"g. c #888887",
"h. c #8C8C8C",
"j. c #908F90",
"k. c #949494",
"l. c #9A9999",
"z. c #A2A2A2",
"x. c #A9AAA8",
"c. c #A5B1A5",
"v. c #B4B4B4",
"b. c #B3BFB2",
"n. c #BFBFBF",
"m. c #80D480",
"M. c #8BD98B",
"N. c #91D191",
"B. c #98D098",
"V. c #9CDB9B",
"C. c #93E193",
"Z. c #AAC4A9",
"A. c #AAC9AA",
"S. c #A0DCA0",
"D. c #A8D6A8",
"F. c #AADEAA",
"G. c #B4C2B3",
"H. c #B6CAB5",
"J. c #BAC1B9",
"K. c #B5DEB5",
"L. c #A4EAA4",
"P. c #A8E1A8",
"I. c #ABEDAB",
"U. c #A7F6A7",
"Y. c #AFF2AF",
"T. c #B3E2B3",
"R. c #BBE4BB",
"E. c #BDEBBD",
"W. c #B6F3B6",
"Q. c #B9F4B9",
"!. c #C0C4BF",
"~. c #C6C6C6",
"^. c #C7CFC7",
"/. c #C9C9C9",
"(. c #C4E6C4",
"). c #C6EBC6",
"_. c #CBEBCB",
"`. c #C4F1C4",
"'. c #CBF3CB",
"]. c #DBE4DB",
"[. c #D2F1D2",
"{. c #D0F8D0",
"}. c #DCF4DC",
"|. c #E2EFE2",
" X c #E1F4E1",
".X c #E2F9E2",
"XX c #EAF5EA",
"oX c None",
/* pixels */
"oXoXoXoXoXoXoXoXoXoXoXoXoXoXoXoXoXoXoXoXoXoXoXoXoXoXoXoXoXoXoXoX",
"oXoXoXoXoXoXoXoXoXoXoXoXoXoXoXoXoXoX{ oXoXoXoXoXoXoXoXoXoXoXoXoX",
"oXoXoXoXoXoXoXoXoXoXoXoXoXoXoXoXoXoXK.B.A oXoXoXoXoXoXoXoXoXoXoX",
"oXoXoXoXoXoXoXoXoXoXoXoXoXoXoXoXoXoXR.XXF.} oXoXoXoXoXoXoXoXoXoX",
"oXoXoXoXoXoXoXoXoXoXoXoXoXoXoXoXoXoXT.}.}.).V.=.K oXoXoXoXoXoXoX",
"oXoXoXoXoXoXoXoXoXoXoXoXoXoXoXoXoXZ T.R.T.'.'.).I.<.F oXoXoXoXoX",
"oXoXoXoXoXoXoXoXoXoXoXoXoXoXoXoXoXA F.>.H ,.C.L.I.Y.;.oXoXoXoXoX",
"oXoXoXoXoXoXoXoXoXoXoXoXoXoXoXoXoXH V.&.oXoXm G P  .@.B oXoXoXoX",
"oXoXoXoXoXoXoXoXoXoXoXoXoXoXoXoXoXD M.=.oXoXoXoXoXoXoXf oXoXoXoX",
"oXoXoXoXoXoXoXoXoXoXoXoXoXoXoXoXoXC 1.-.oXoXoXoXoXoXoXoXoXoXoXoX",
"oXoXoXoXoXoXoXoXoXoXoXq e e e e e > =.#.V oXoXoXoXoXoXoXoXoXoXoX",
"oXoXoXoXoXoXoXoXoX7 9 9 q oXoXoXoX: o.+.j 8 7 oXoXoXoXoXoXoXoXoX",
"oXoXoXoXoXoXoXoX% * oXoXoXoXoXoXoXoX) X.v oX* % oXoXoXoXoXoXoXoX",
"oXoXoXoXoXoXoXo oXoXoXoXoXoXoXoXoXoXF _ I oXoXoXo oXoXoXoXoXoXoX",
"oXoXoXoXoXoX@ oXoXoXoXoXoXoXoXoXoXoXz R U l oXoXoXo oXoXoXoXoXoX",
"oXoXoXoXoXf.oXoXoXoXoXoXoXoXoXoXoXoXoXx Y c oXoXoXoXj.oXoXoXoXoX",
"oXoXoXoXoXx.oXoXoXoXoXoXoXoXJ *.1.M.1.+.E Y oXoXoXoXg.oXoXoXoXoX",
"oXoXoXoXoXoXoXi oXoXoXoX{ N.). X|.].|..XQ.$.z oXj.oXoXoXoXoXoXoX",
"oXoXoXoXoXoX~.r q oXoX} F._._._.G.x.^.[.{.U.L w u /.oXoXoXoXoXoX",
"p.oXoXoXz.~.l.9 9 oX{ S.Z.c.H.T.J.y Z.2.' ` G 0 9 l.v.z.oXoXoXu.",
"p.oXoXoXg.x.t 5 = S 1.V.G.l.~.P.C.1.X.Y W W N 8 = t z.g.oXoXoXi.",
"p.oXoXoXi l.e * % ] 1.1.D.H.V...G  .:.^ W Q n & % e l.u oXoXoXi.",
"d.oXoXoXq l.q $ # ] &.-.-.%.| :.F.E.E.( Q W h $ $ 9 k.9 oXoXoXa.",
"d.oXy.oX@ l.q o O V / ~ M L F.W.'.Q.(.! Q Y - @ o r l.@ oXy.oXa.",
"d.oXr.oX@ v.i X X ; x x c b %._.XX(.O.T Y oXoXX X g.v.o oXr.oXa.",
"d.oXoXoXoXoXv.@   oXk c c U I /  .^ U c oXoXoX. $ n.oXoXoXoXoXoX",
"oXoXoXoXoXoXoXoXoXoXoXf l x I c c c oXoXoXoXoXoXoXoXoXoXoXoXoXoX",
"oXoXoXoXoXoXoXoXoXoXoXoXoXoXoXoXoXoXoXoXoXoXoXoXoXoXoXoXoXoXoXoX",
"oXoXoXoXoXoXoXoXoXoXoXoXoXoXoXoXoXoXoXoXoXoXoXoXoXoXoXoXoX6 oXoX",
"oXoX6.7.oXoXoXoX4.e.3.oXd e.6.oXoXw.9.oXoX8.e.oXa 9.s p p 3 oXoX",
"oXoX9.0.oXoXoXoXw.6.q.5.q.6.e.oX6.q.7.9.8.8.q.6.oXd p p p 4.oXoX",
"oXoXs 4.4 4 , , 4.oXs 7.d oX4.< a d oX6.6.oXs d + 1 3 2 4 4.oXoX"
};
